<svg width="800" height="400" viewBox="0 0 800 400" fill="none" xmlns="http://www.w3.org/2000/svg">
<rect width="800" height="400" fill="none"/>
<path d="M162.984 234C150.099 234 143.656 227.557 143.656 214.672C143.656 201.787 150.099 195.344 162.984 195.344H186.408V185.36C186.408 179.387 183.421 176.4 177.448 176.4H150.056V171.28L155.176 167.44H177.448C190.248 167.44 196.648 173.84 196.648 186.64V234H162.984ZM153.896 216.08C153.896 222.053 156.883 225.04 162.856 225.04H186.408V203.664H162.856C156.883 203.664 153.896 206.651 153.896 212.624V216.08ZM214.055 230.16V225.04H243.623C249.511 225.04 252.455 222.053 252.455 216.08C252.455 210.021 250.108 206.608 245.415 205.84L230.183 203.28C219.431 201.488 214.055 195.643 214.055 185.744C214.055 173.541 220.455 167.44 233.255 167.44H254.631L259.751 171.28V176.4H233.127C227.154 176.4 224.167 179.387 224.167 185.36C224.167 190.736 226.684 193.851 231.719 194.704L246.951 197.264C257.532 198.971 262.823 205.072 262.823 215.568C262.823 227.856 256.338 234 243.367 234H219.175L214.055 230.16ZM278.055 230.16V225.04H307.623C313.511 225.04 316.455 222.053 316.455 216.08C316.455 210.021 314.108 206.608 309.415 205.84L294.183 203.28C283.431 201.488 278.055 195.643 278.055 185.744C278.055 173.541 284.455 167.44 297.255 167.44H318.631L323.751 171.28V176.4H297.127C291.154 176.4 288.167 179.387 288.167 185.36C288.167 190.736 290.684 193.851 295.719 194.704L310.951 197.264C321.532 198.971 326.823 205.072 326.823 215.568C326.823 227.856 320.338 234 307.367 234H283.175L278.055 230.16ZM342.567 213.264V187.152C342.567 173.328 349.479 166.416 363.303 166.416H379.943C393.767 166.416 400.679 173.328 400.679 187.152V206.736H360.231V214.544C360.231 217.275 361.596 218.64 364.327 218.64H398.119V228.24L390.439 234H363.303C349.479 234 342.567 227.088 342.567 213.264ZM360.231 193.168H383.015V185.872C383.015 183.141 381.65 181.776 378.919 181.776H364.327C361.596 181.776 360.231 183.141 360.231 185.872V193.168ZM418.091 234V166.416H455.467C469.291 166.416 476.203 173.328 476.203 187.152V234H458.539V185.872C458.539 183.141 457.174 181.776 454.443 181.776H435.755V234H418.091ZM487.179 169.104L488.971 166.416H504.203L519.819 218.64H521.099L536.715 166.416H551.947L553.739 169.104L533.387 234H507.531L487.179 169.104ZM565.728 215.824V139.28H575.968V216.848C575.968 222.736 578.955 225.851 584.928 226.192V235.024C572.128 235.024 565.728 228.624 565.728 215.824ZM598.466 214.8V186.64C598.466 173.84 604.866 167.44 617.666 167.44H634.306C647.106 167.44 653.506 173.84 653.506 186.64V204.688H608.706V216.08C608.706 222.053 611.693 225.04 617.666 225.04H650.946V230.16L645.826 234H617.666C604.866 234 598.466 227.6 598.466 214.8ZM608.706 196.368H643.266V185.36C643.266 179.387 640.279 176.4 634.306 176.4H617.666C611.693 176.4 608.706 179.387 608.706 185.36V196.368Z" fill="#303030"/>
<path d="M446.5 92L448.74 90.8903L448.052 89.5H446.5V92ZM473 145.5L474.838 116.691L448.969 129.504L473 145.5ZM292 92V94.5H446.5V92V89.5H292V92ZM446.5 92L444.26 93.1097L460.773 126.447L463.013 125.338L465.253 124.228L448.74 90.8903L446.5 92Z" fill="#303030"/>
<path d="M241.75 122L240.55 112.4C239.9 112.15 239.288 111.85 238.713 111.5C238.138 111.15 237.575 110.775 237.025 110.375L228.1 114.125L219.85 99.875L227.575 94.025C227.525 93.675 227.5 93.3375 227.5 93.0125V90.9875C227.5 90.6625 227.525 90.325 227.575 89.975L219.85 84.125L228.1 69.875L237.025 73.625C237.575 73.225 238.15 72.85 238.75 72.5C239.35 72.15 239.95 71.85 240.55 71.6L241.75 62H258.25L259.45 71.6C260.1 71.85 260.713 72.15 261.288 72.5C261.863 72.85 262.425 73.225 262.975 73.625L271.9 69.875L280.15 84.125L272.425 89.975C272.475 90.325 272.5 90.6625 272.5 90.9875V93.0125C272.5 93.3375 272.45 93.675 272.35 94.025L280.075 99.875L271.825 114.125L262.975 110.375C262.425 110.775 261.85 111.15 261.25 111.5C260.65 111.85 260.05 112.15 259.45 112.4L258.25 122H241.75ZM250.15 102.5C253.05 102.5 255.525 101.475 257.575 99.425C259.625 97.375 260.65 94.9 260.65 92C260.65 89.1 259.625 86.625 257.575 84.575C255.525 82.525 253.05 81.5 250.15 81.5C247.2 81.5 244.713 82.525 242.688 84.575C240.663 86.625 239.65 89.1 239.65 92C239.65 94.9 240.663 97.375 242.688 99.425C244.713 101.475 247.2 102.5 250.15 102.5Z" fill="#303030"/>
<path d="M430.5 307.5L428.26 308.61L428.948 310L430.5 310L430.5 307.5ZM404 254L402.162 282.809L428.031 269.996L404 254ZM585 307.5L585 305L430.5 305L430.5 307.5L430.5 310L585 310L585 307.5ZM430.5 307.5L432.74 306.39L416.227 273.053L413.987 274.162L411.747 275.272L428.26 308.61L430.5 307.5Z" fill="#303030"/>
<path d="M635.25 277.5L636.45 287.1C637.1 287.35 637.713 287.65 638.288 288C638.863 288.35 639.425 288.725 639.975 289.125L648.9 285.375L657.15 299.625L649.425 305.475C649.475 305.825 649.5 306.163 649.5 306.488L649.5 308.513C649.5 308.838 649.475 309.175 649.425 309.525L657.15 315.375L648.9 329.625L639.975 325.875C639.425 326.275 638.85 326.65 638.25 327C637.65 327.35 637.05 327.65 636.45 327.9L635.25 337.5L618.75 337.5L617.55 327.9C616.9 327.65 616.288 327.35 615.713 327C615.138 326.65 614.575 326.275 614.025 325.875L605.1 329.625L596.85 315.375L604.575 309.525C604.525 309.175 604.5 308.838 604.5 308.513L604.5 306.488C604.5 306.163 604.55 305.825 604.65 305.475L596.925 299.625L605.175 285.375L614.025 289.125C614.575 288.725 615.15 288.35 615.75 288C616.35 287.65 616.95 287.35 617.55 287.1L618.75 277.5L635.25 277.5ZM626.85 297C623.95 297 621.475 298.025 619.425 300.075C617.375 302.125 616.35 304.6 616.35 307.5C616.35 310.4 617.375 312.875 619.425 314.925C621.475 316.975 623.95 318 626.85 318C629.8 318 632.288 316.975 634.313 314.925C636.338 312.875 637.35 310.4 637.35 307.5C637.35 304.6 636.338 302.125 634.313 300.075C632.288 298.025 629.8 297 626.85 297Z" fill="#303030"/>
</svg>
